<svg width="48" height="48" viewBox="0 0 48 48" fill="none" xmlns="http://www.w3.org/2000/svg">
<path d="M22 32L14 24M14 24L22 16M14 24H42M32 32V34C32 35.5913 31.3679 37.1174 30.2426 38.2426C29.1174 39.3679 27.5913 40 26 40H12C10.4087 40 8.88258 39.3679 7.75736 38.2426C6.63214 37.1174 6 35.5913 6 34V14C6 12.4087 6.63214 10.8826 7.75736 9.75736C8.88258 8.63214 10.4087 8 12 8H26C27.5913 8 29.1174 8.63214 30.2426 9.75736C31.3679 10.8826 32 12.4087 32 14V16" stroke="#EAD430" stroke-width="3" stroke-linecap="round" stroke-linejoin="round"/>
</svg>
