<svg width="40" height="40" viewBox="0 0 40 40" fill="none" xmlns="http://www.w3.org/2000/svg">
<path d="M13.3835 29.1682C11.165 29.1697 9.02601 28.3424 7.38622 26.8487C5.74643 25.355 4.72422 23.3027 4.52015 21.0944C4.31608 18.8862 4.94489 16.6814 6.28319 14.9127C7.62149 13.144 9.57268 11.9391 11.7539 11.5343C12.1371 9.49576 13.2208 7.65513 14.8178 6.33075C16.4148 5.00636 18.4246 4.28149 20.4996 4.28149C22.5746 4.28149 24.5844 5.00636 26.1814 6.33075C27.7784 7.65513 28.8622 9.49576 29.2453 11.5343C31.4192 11.9473 33.3612 13.1552 34.6924 14.9222C36.0235 16.6893 36.6482 18.8887 36.4447 21.0913C36.2411 23.2939 35.2239 25.3417 33.5915 26.8351C31.959 28.3284 29.8285 29.1602 27.6157 29.1682M15.1625 20.2766L20.4996 14.9416M20.4996 14.9416L25.8367 20.2766M20.4996 14.9416V36.2815" stroke="#EA3034" stroke-width="3" stroke-linecap="round" stroke-linejoin="round"/>
</svg>
